<?xml version="1.0" encoding="UTF-8" standalone="no"?>
<svg
   width="64in"
   height="64in"
   viewBox="0 0 1625.6 1625.6001"
   version="1.1"
   id="svg1552"
   inkscape:version="1.1.2 (0a00cf5339, 2022-02-04)"
   sodipodi:docname="stealth_2.svg"
   xmlns:inkscape="http://www.inkscape.org/namespaces/inkscape"
   xmlns:sodipodi="http://sodipodi.sourceforge.net/DTD/sodipodi-0.dtd"
   xmlns="http://www.w3.org/2000/svg"
   xmlns:svg="http://www.w3.org/2000/svg"
   xmlns:rdf="http://www.w3.org/1999/02/22-rdf-syntax-ns#"
   xmlns:cc="http://creativecommons.org/ns#"
   xmlns:dc="http://purl.org/dc/elements/1.1/">
  <defs
     id="defs1546" />
  <sodipodi:namedview
     id="base"
     pagecolor="#ffffff"
     bordercolor="#666666"
     borderopacity="1.0"
     inkscape:pageopacity="0.0"
     inkscape:pageshadow="2"
     inkscape:zoom="0.099548746"
     inkscape:cx="1677.5701"
     inkscape:cy="3390.2989"
     inkscape:document-units="in"
     inkscape:current-layer="layer3"
     showgrid="false"
     inkscape:window-width="1920"
     inkscape:window-height="995"
     inkscape:window-x="0"
     inkscape:window-y="0"
     inkscape:window-maximized="1"
     units="in"
     inkscape:document-rotation="0"
     inkscape:pagecheckerboard="0"
     width="16in" />
  <metadata
     id="metadata1549">
    <rdf:RDF>
      <cc:Work
         rdf:about="">
        <dc:format>image/svg+xml</dc:format>
        <dc:type
           rdf:resource="http://purl.org/dc/dcmitype/StillImage" />
      </cc:Work>
    </rdf:RDF>
  </metadata>
  <g
     inkscape:label="Layer 1"
     inkscape:groupmode="layer"
     id="layer1"
     transform="translate(0,109.40002)">
    <circle
       style="fill:#000000;stroke:#000000;stroke-width:0.0615663"
       id="origin"
       cx="858.45844"
       cy="755.39056"
       inkscape:label="origin"
       r="0.9789077" />
    <path
       id="path6515-6"
       d="m 923.74347,473.49581 c 0,-10.1454 -8.2241,-18.3694 -18.36934,-18.3694 -10.14512,0 -18.36935,8.224 -18.36935,18.3694 0,10.1452 8.22423,18.3693 18.36935,18.3693 10.14524,0 18.36934,-8.2241 18.36934,-18.3693 z"
       style="display:inline;fill:#000000;fill-opacity:1;fill-rule:nonzero;stroke:#000000;stroke-width:0.129119;stroke-linecap:butt;stroke-linejoin:miter;stroke-miterlimit:10;stroke-dasharray:none;stroke-opacity:1"
       inkscape:connector-curvature="0" />
  </g>
  <g
     inkscape:groupmode="layer"
     id="layer3"
     inkscape:label="Layer 3">
    <g
       id="g114"
       transform="matrix(0.26458334,0,0,0.26458334,240.24168,115.49063)" />
    <path
       d="m 789.42287,461.03317 c 2.7693,-2.7782 4.6743,-12.0474 5.14172,-25.0296 l 0.097,-2.7341 0.28222,-0.2645 c 0.15,-0.1412 1.173,-1.0231 2.25778,-1.958 1.09362,-0.926 2.25778,-1.9402 2.59292,-2.2489 l 0.59972,-0.5556 0.0794,-0.882 c 0.0442,-0.485 0.1852,-1.8962 0.30868,-3.1309 0.1234,-1.2347 0.45862,-4.6831 0.74084,-7.6641 0.34396,-3.5366 0.56444,-5.4592 0.635,-5.5474 0.0618,-0.071 3.56306,-3.1926 7.78756,-6.9321 4.2157,-3.7394 8.74008,-7.7435 10.05418,-8.8988 1.30528,-1.1642 3.57186,-3.1662 5.02708,-4.4627 1.44638,-1.2876 3.11326,-2.7693 3.70416,-3.2808 0.58208,-0.5115 1.15536,-1.0407 1.27882,-1.173 l 0.22048,-0.2469 0.0264,-3.272 0.0264,-3.272 -0.51152,-0.5204 c -0.28222,-0.2822 -1.04952,-0.9789 -1.70216,-1.5434 -0.65264,-0.5733 -1.49048,-1.3141 -1.85208,-1.658 -0.67028,-0.6439 -1.6845,-1.3582 -1.92264,-1.3582 -0.1412,0 -16.72166,-5.5298 -16.97742,-5.6621 -0.1234,-0.062 -0.15,-0.194 -0.15,-0.7144 v -0.635 l 1.16416,-1.1289 c 0.64382,-0.6262 1.74626,-1.6316 2.4518,-2.2313 0.70556,-0.5997 1.41994,-1.2259 1.59632,-1.3846 0.1764,-0.15 0.71438,-0.6174 1.19064,-1.0319 0.47624,-0.4145 1.21708,-1.0848 1.6404,-1.4993 l 0.77612,-0.7497 0.0442,-1.9403 c 0.018,-1.0671 0.0618,-2.7163 0.0882,-3.66 0.0618,-1.9491 0.0264,-2.0991 -0.48508,-2.2225 -0.2734,-0.071 -2.92804,-0.9172 -5.60034,-1.7904 -0.48506,-0.1588 -1.02306,-0.3175 -1.19062,-0.3528 -0.1676,-0.035 -0.43216,-0.1322 -0.57326,-0.2028 -0.15,-0.079 -0.30868,-0.141 -0.35278,-0.15 -0.22048,-0.026 -0.65264,-0.1588 -1.03188,-0.3263 l -0.41452,-0.1852 -0.37924,0.2381 c -1.0054,0.6262 -1.51694,1.0583 -4.03048,3.4043 l -2.66346,2.4254 c -9.47125,5.7563 -16.53596,3.9942 -22.09288,-0.8467 -2.18722,-1.9138 -4.36562,-3.81 -4.83304,-4.2245 -0.47626,-0.4145 -0.92604,-0.7761 -1.00542,-0.8114 -0.097,-0.044 -1.93146,0.5115 -5.00062,1.5081 l -4.8507,1.5787 0.0264,1.3582 c 0.1322,5.6974 0.1588,6.1383 0.35278,6.3059 0.1058,0.088 2.07256,1.8874 4.38326,3.9952 l 4.19806,3.8365 -0.0264,0.7055 -0.0264,0.7056 -3.48368,1.1818 c -1.91382,0.6438 -5.91784,1.9932 -8.89882,2.9809 l -5.40632,1.8169 -2.63702,2.3283 -2.637,2.3371 v 3.3427 3.3425 l 0.23812,0.2558 c 0.141,0.1412 2.86632,2.5665 6.06778,5.3975 3.20144,2.831 6.87032,6.0766 8.15796,7.2231 1.28764,1.1377 4.8948,4.3304 8.00806,7.0909 3.1309,2.7781 5.68854,5.1064 5.70618,5.2034 0.0264,0.1058 0.24694,2.2931 0.48508,4.8595 0.24694,2.5753 0.56444,5.865 0.70554,7.3202 0.15,1.4552 0.30868,3.0868 0.3616,3.616 0.0618,0.6438 0.15,1.0583 0.25576,1.2259 0.1852,0.2998 1.13772,1.1553 3.57188,3.2191 0.97896,0.8202 1.82562,1.6051 1.88736,1.7374 0.1146,0.2646 0.1764,1.2259 0.3616,5.8385 0.053,1.3317 0.1322,2.7164 0.1764,3.0868 0.044,0.3792 0.1234,1.1377 0.1764,1.6933 0.25576,2.6635 0.48508,4.4009 0.89076,6.791 0.46744,2.7781 0.70556,3.7747 1.39348,5.9178 0.51152,1.5611 0.97014,2.5577 1.60514,3.4837 0.44978,0.6438 1.2259,1.4464 1.40228,1.4464 0.053,0 0.28224,-0.1852 0.51154,-0.4145 z"
       id="path185"
       style="fill:#000000;stroke:none;stroke-width:0.00881944"
       sodipodi:nodetypes="ccccccccccccccccccccccscsccscscccccccccccccccccccccccccccccccccscccccccccccccccscc" />
  </g>
  <g
     inkscape:groupmode="layer"
     id="layer2"
     inkscape:label="Layer 2"
     transform="translate(0,381.00001)">
    <path
       d="m 655.9451,203.68911 c -15.87727,26.9142 -34.22933,-2.2922 -18.85971,24.9153 15.36931,27.2072 -0.18077,-3.5863 31.07423,-3.293 31.24719,0.2922 15.12977,30.7896 31.00708,3.8756 15.87757,-26.9142 -3.01924,1.9427 -18.38882,-25.2648 -15.36961,-27.2073 19.09983,-28.4975 -12.14736,-28.7908 -31.24685,-0.2922 3.19216,1.6438 -12.68542,28.5577 z"
       id="path851"
       style="stroke-width:0.291677" />
  </g>
  <g
     inkscape:groupmode="layer"
     id="layer4"
     inkscape:label="Layer 4" />
</svg>
