<?xml version="1.0" encoding="UTF-8"?>
<svg id="svg1552" xmlns="http://www.w3.org/2000/svg" xmlns:svg="http://www.w3.org/2000/svg" xmlns:sodipodi="http://sodipodi.sourceforge.net/DTD/sodipodi-0.dtd" xmlns:rdf="http://www.w3.org/1999/02/22-rdf-syntax-ns#" xmlns:inkscape="http://www.inkscape.org/namespaces/inkscape" xmlns:dc="http://purl.org/dc/elements/1.1/" xmlns:cc="http://creativecommons.org/ns#" version="1.1" viewBox="0 0 4608 4608">
  <defs>
    <style>
      .cls-1 {
        stroke-width: 0px;
      }

      .cls-1, .cls-2, .cls-3 {
        fill: #000;
      }

      .cls-2 {
        stroke-miterlimit: 28.3;
        stroke-width: .4px;
      }

      .cls-2, .cls-3 {
        stroke: #000;
      }

      .cls-3 {
        stroke-miterlimit: 11.3;
        stroke-width: .2px;
      }
    </style>
  </defs>
  <sodipodi:namedview id="base" width="16in" bordercolor="#666666" borderopacity="1.0" inkscape:current-layer="layer3" inkscape:cx="1677.5701" inkscape:cy="3390.2989" inkscape:document-rotation="0" inkscape:document-units="in" inkscape:pagecheckerboard="0" inkscape:pageopacity="0.0" inkscape:pageshadow="2" inkscape:window-height="995" inkscape:window-maximized="1" inkscape:window-width="1920" inkscape:window-x="0" inkscape:window-y="0" inkscape:zoom="0.099548746" pagecolor="#ffffff" showgrid="false" units="in"/>
  <g id="layer1" inkscape:groupmode="layer" inkscape:label="Layer 1">
    <circle id="origin" class="cls-3" cx="2433.4" cy="2451.4" r="2.8" inkscape:label="origin"/>
    <path id="path6515-6" class="cls-2" d="M2488.3,1303.3c0-28.8-23.3-52.1-52.1-52.1s-52.1,23.3-52.1,52.1,23.3,52.1,52.1,52.1,52.1-23.3,52.1-52.1h0Z" inkscape:connector-curvature="0"/>
  </g>
  <g id="layer3" inkscape:groupmode="layer" inkscape:label="Layer 3">
    <path id="path185" class="cls-1" d="M2437.8,1250c7.8-7.9,13.3-34.2,14.6-71l.3-7.8.8-.7c.4-.4,3.3-2.9,6.4-5.6,3.1-2.6,6.4-5.5,7.3-6.4l1.7-1.6.2-2.5c.1-1.4.5-5.4.9-8.9.3-3.5,1.3-13.3,2.1-21.7,1-10,1.6-15.5,1.8-15.7.2-.2,10.1-9,22.1-19.7,12-10.6,24.8-22,28.5-25.2,3.7-3.3,10.1-9,14.3-12.7,4.1-3.6,8.8-7.8,10.5-9.3,1.7-1.4,3.3-3,3.6-3.3l.6-.7v-9.3c0,0,.1-9.3.1-9.3l-1.5-1.5c-.8-.8-3-2.8-4.8-4.4-1.9-1.6-4.2-3.7-5.2-4.7-1.9-1.8-4.8-3.8-5.5-3.8s-47.4-15.7-48.1-16.1c-.3-.2-.4-.5-.4-2v-1.8l3.3-3.2c1.8-1.8,5-4.6,6.9-6.3,2-1.7,4-3.5,4.5-3.9.5-.4,2-1.8,3.4-2.9s3.5-3.1,4.6-4.2l2.2-2.1v-5.5c.2-3,.3-7.7.4-10.4.2-5.5,0-6-1.4-6.3-.8-.2-8.3-2.6-15.9-5.1-1.4-.5-2.9-.9-3.4-1-.5,0-1.2-.4-1.6-.6-.4-.2-.9-.4-1-.4-.6,0-1.9-.5-2.9-.9l-1.2-.5-1.1.7c-2.8,1.8-4.3,3-11.4,9.6l-7.5,6.9c-26.8,16.3-46.9,11.3-62.6-2.4-6.2-5.4-12.4-10.8-13.7-12-1.4-1.2-2.6-2.2-2.9-2.3-.3-.1-5.5,1.4-14.2,4.3l-13.8,4.5v3.8c.4,16.2.5,17.4,1.1,17.9.3.2,5.9,5.4,12.4,11.3l11.9,10.9v2c0,0-.1,2-.1,2l-9.9,3.3c-5.4,1.8-16.8,5.7-25.2,8.4l-15.3,5.2-7.5,6.6-7.5,6.6v19l.7.7c.4.4,8.1,7.3,17.2,15.3,9.1,8,19.5,17.2,23.1,20.5,3.7,3.2,13.9,12.3,22.7,20.1,8.9,7.9,16.1,14.5,16.2,14.7,0,.3.7,6.5,1.4,13.8.7,7.3,1.6,16.6,2,20.8.4,4.1.9,8.7,1,10.3.2,1.8.4,3,.7,3.5.5.8,3.2,3.3,10.1,9.1,2.8,2.3,5.2,4.5,5.4,4.9.3.8.5,3.5,1,16.6.2,3.8.4,7.7.5,8.7.1,1.1.3,3.2.5,4.8.7,7.6,1.4,12.5,2.5,19.3,1.3,7.9,2,10.7,4,16.8,1.5,4.4,2.8,7.3,4.6,9.9,1.3,1.8,3.5,4.1,4,4.1s.8-.5,1.5-1.2h0Z" sodipodi:nodetypes="ccccccccccccccccccccccscsccscscccccccccccccccccccccccccccccccccscccccccccccccccscc"/>
  </g>
  <g id="layer2" inkscape:groupmode="layer" inkscape:label="Layer 2">
    <path id="path851" class="cls-1" d="M2401.4,827.4c-45,76.3-97-6.5-53.5,70.6,43.6,77.1-.5-10.2,88.1-9.3,88.6.8,42.9,87.3,87.9,11,45-76.3-8.6,5.5-52.1-71.6-43.6-77.1,54.1-80.8-34.4-81.6-88.6-.8,9,4.7-36,81h0Z"/>
  </g>
</svg>