<?xml version="1.0" encoding="UTF-8" standalone="no"?>
<svg
   width="16in"
   height="16in"
   viewBox="0 0 406.4 406.40002"
   version="1.1"
   id="svg1552"
   inkscape:version="1.1.2 (0a00cf5339, 2022-02-04)"
   sodipodi:docname="stealth_2.svg"
   xmlns:inkscape="http://www.inkscape.org/namespaces/inkscape"
   xmlns:sodipodi="http://sodipodi.sourceforge.net/DTD/sodipodi-0.dtd"
   xmlns="http://www.w3.org/2000/svg"
   xmlns:svg="http://www.w3.org/2000/svg"
   xmlns:rdf="http://www.w3.org/1999/02/22-rdf-syntax-ns#"
   xmlns:cc="http://creativecommons.org/ns#"
   xmlns:dc="http://purl.org/dc/elements/1.1/">
  <defs
     id="defs1546" />
  <sodipodi:namedview
     id="base"
     pagecolor="#ffffff"
     bordercolor="#666666"
     borderopacity="1.0"
     inkscape:pageopacity="0.0"
     inkscape:pageshadow="2"
     inkscape:zoom="6.5633559"
     inkscape:cx="751.59722"
     inkscape:cy="870.97212"
     inkscape:document-units="in"
     inkscape:current-layer="layer3"
     showgrid="false"
     inkscape:window-width="1920"
     inkscape:window-height="995"
     inkscape:window-x="0"
     inkscape:window-y="0"
     inkscape:window-maximized="1"
     units="in"
     inkscape:document-rotation="0"
     inkscape:pagecheckerboard="0"
     width="16in" />
  <metadata
     id="metadata1549">
    <rdf:RDF>
      <cc:Work
         rdf:about="">
        <dc:format>image/svg+xml</dc:format>
        <dc:type
           rdf:resource="http://purl.org/dc/dcmitype/StillImage" />
      </cc:Work>
    </rdf:RDF>
  </metadata>
  <g
     inkscape:label="Layer 1"
     inkscape:groupmode="layer"
     id="layer1"
     transform="translate(0,109.40002)">
    <circle
       style="fill:#000000;stroke:#000000;stroke-width:0.0615663"
       id="origin"
       cx="1.0096909"
       cy="295.9903"
       r="0.9789077"
       inkscape:label="origin" />
    <path
       id="path6515-6"
       d="m 332.22719,203.73268 c 0,-10.14547 -8.2241,-18.36946 -18.36934,-18.36946 -10.14512,0 -18.36935,8.22398 -18.36935,18.36946 0,10.14515 8.22423,18.36929 18.36935,18.36929 10.14524,0 18.36934,-8.22414 18.36934,-18.36929 z"
       style="display:inline;fill:#000000;fill-opacity:1;fill-rule:nonzero;stroke:#000000;stroke-width:0.129119;stroke-linecap:butt;stroke-linejoin:miter;stroke-miterlimit:10;stroke-dasharray:none;stroke-opacity:1"
       inkscape:connector-curvature="0" />
  </g>
  <g
     inkscape:groupmode="layer"
     id="layer3"
     inkscape:label="Layer 3">
    <g
       id="g114"
       transform="matrix(0.26458334,0,0,0.26458334,240.24168,115.49063)" />
    <path
       d="m 202.11953,132.34017 c -2.7693,2.77812 -4.6743,12.04736 -5.14172,25.02958 l -0.097,2.73404 -0.28222,0.26458 c -0.15,0.1412 -1.173,1.02306 -2.25778,1.95792 -1.09362,0.92604 -2.25778,1.94028 -2.59292,2.24896 l -0.59972,0.55562 -0.0794,0.88194 c -0.0442,0.48507 -0.1852,1.89618 -0.30868,3.13089 -0.1234,1.23472 -0.45862,4.68314 -0.74084,7.66411 -0.34396,3.5366 -0.56444,5.45924 -0.635,5.54744 -0.0618,0.0706 -3.56306,3.19263 -7.78756,6.93207 -4.2157,3.73944 -8.74008,7.74347 -10.05418,8.89882 -1.30528,1.16416 -3.57186,3.16618 -5.02708,4.46265 -1.44638,1.28764 -3.11326,2.7693 -3.70416,3.28082 -0.58208,0.51154 -1.15536,1.0407 -1.27882,1.173 l -0.22048,0.24694 -0.0264,3.27202 -0.0264,3.272 0.51152,0.52035 c 0.28222,0.28222 1.04952,0.97896 1.70216,1.54341 0.65264,0.57326 1.49048,1.3141 1.85208,1.65805 0.67028,0.64382 1.6845,1.35818 1.92264,1.35818 0.1412,0 16.72166,5.52981 16.97742,5.66211 0.1234,0.0618 0.15,0.194 0.15,0.71436 v 0.63499 l -1.16416,1.1289 c -0.64382,0.62618 -1.74626,1.63158 -2.4518,2.23132 -0.70556,0.59972 -1.41994,1.2259 -1.59632,1.38464 -0.1764,0.15 -0.71438,0.61736 -1.19064,1.03188 -0.47624,0.41452 -1.21708,1.0848 -1.6404,1.4993 l -0.77612,0.74966 -0.0442,1.94028 c -0.018,1.06714 -0.0618,2.71638 -0.0882,3.66006 -0.0618,1.9491 -0.0264,2.09904 0.48508,2.2225 0.2734,0.0706 2.92804,0.91722 5.60034,1.79036 0.48506,0.1588 1.02306,0.3175 1.19062,0.35278 0.1676,0.0352 0.43216,0.1322 0.57326,0.20284 0.15,0.0794 0.30868,0.141 0.35278,0.15 0.22048,0.0264 0.65264,0.1588 1.03188,0.32632 l 0.41452,0.1852 0.37924,-0.23814 c 1.0054,-0.62616 1.51694,-1.05832 4.03048,-3.4043 l 2.66346,-2.42534 c 9.47125,-5.75631 16.53596,-3.99422 22.09288,0.84666 2.18722,1.91382 4.36562,3.81 4.83304,4.22452 0.47626,0.41452 0.92604,0.77612 1.00542,0.8114 0.097,0.0442 1.93146,-0.51154 5.00062,-1.50814 l 4.8507,-1.57868 -0.0264,-1.3582 c -0.1322,-5.69736 -0.1588,-6.13832 -0.35278,-6.3059 -0.1058,-0.0882 -2.07256,-1.88736 -4.38326,-3.9952 l -4.19806,-3.83646 0.0264,-0.70556 0.0264,-0.70556 3.48368,-1.1818 c 1.91382,-0.64382 5.91784,-1.9932 8.89882,-2.98096 l 5.40632,-1.81682 2.63702,-2.32832 2.637,-2.33716 v -3.34262 -3.34258 l -0.23812,-0.25576 c -0.141,-0.1412 -2.86632,-2.56646 -6.06778,-5.3975 -3.20144,-2.83104 -6.87032,-6.0766 -8.15796,-7.22312 -1.28764,-1.13772 -4.8948,-4.33036 -8.00806,-7.09084 -3.1309,-2.77812 -5.68854,-5.10646 -5.70618,-5.20348 -0.0264,-0.1058 -0.24694,-2.29306 -0.48508,-4.8595 -0.24694,-2.57528 -0.56444,-5.86494 -0.70554,-7.32016 -0.15,-1.4552 -0.30868,-3.0868 -0.3616,-3.61596 -0.0618,-0.64382 -0.15,-1.05834 -0.25576,-1.2259 -0.1852,-0.29986 -1.13772,-1.15534 -3.57188,-3.2191 -0.97896,-0.8202 -1.82562,-1.60514 -1.88736,-1.73744 -0.1146,-0.26458 -0.1764,-1.2259 -0.3616,-5.83846 -0.053,-1.33174 -0.1322,-2.7164 -0.1764,-3.0868 -0.044,-0.37924 -0.1234,-1.13772 -0.1764,-1.69334 -0.25576,-2.66348 -0.48508,-4.4009 -0.89076,-6.79098 -0.46744,-2.77812 -0.70556,-3.77472 -1.39348,-5.91784 -0.51152,-1.56104 -0.97014,-2.55764 -1.60514,-3.48368 -0.44978,-0.64382 -1.2259,-1.4464 -1.40228,-1.4464 -0.053,0 -0.28224,0.1852 -0.51154,0.41452 z"
       id="path185"
       style="fill:#000000;stroke:none;stroke-width:0.00881944"
       sodipodi:nodetypes="ccccccccccccccccccccccscsccscscccccccccccccccccccccccccccccccccscccccccccccccccscc" />
  </g>
  <g
     inkscape:groupmode="layer"
     id="layer2"
     inkscape:label="Layer 2"
     transform="translate(0,381.00001)">
    <path
       d="m 64.428822,-66.074015 c -15.877269,26.91416 -34.229329,-2.29224 -18.859709,24.91528 15.369309,27.20719 -0.18077,-3.58632 31.074229,-3.29304 31.247188,0.29218 15.12977,30.789607 31.007078,3.87558 15.87757,-26.91416 -3.01924,1.94272 -18.388818,-25.26476 -15.36961,-27.20733 19.099828,-28.49751 -12.14736,-28.79079 -31.246849,-0.29218 3.19216,1.64383 -12.68542,28.55773 z"
       id="path851"
       style="stroke-width:0.291677" />
  </g>
  <g
     inkscape:groupmode="layer"
     id="layer4"
     inkscape:label="Layer 4" />
</svg>
