<?xml version="1.0" encoding="UTF-8" standalone="no"?>
<svg
   width="64in"
   height="64in"
   viewBox="0 0 1625.6 1625.6001"
   version="1.1"
   id="svg1552"
   inkscape:version="1.1.2 (0a00cf5339, 2022-02-04)"
   sodipodi:docname="stealth_2.svg"
   xmlns:inkscape="http://www.inkscape.org/namespaces/inkscape"
   xmlns:sodipodi="http://sodipodi.sourceforge.net/DTD/sodipodi-0.dtd"
   xmlns="http://www.w3.org/2000/svg"
   xmlns:svg="http://www.w3.org/2000/svg"
   xmlns:rdf="http://www.w3.org/1999/02/22-rdf-syntax-ns#"
   xmlns:cc="http://creativecommons.org/ns#"
   xmlns:dc="http://purl.org/dc/elements/1.1/">
  <defs
     id="defs1546" />
  <sodipodi:namedview
     id="base"
     pagecolor="#ffffff"
     bordercolor="#666666"
     borderopacity="1.0"
     inkscape:pageopacity="0.0"
     inkscape:pageshadow="2"
     inkscape:zoom="0.29881417"
     inkscape:cx="1445.7146"
     inkscape:cy="704.4512"
     inkscape:document-units="in"
     inkscape:current-layer="layer9"
     showgrid="false"
     inkscape:window-width="1920"
     inkscape:window-height="995"
     inkscape:window-x="0"
     inkscape:window-y="0"
     inkscape:window-maximized="1"
     units="in"
     inkscape:document-rotation="0"
     inkscape:pagecheckerboard="0"
     width="16in" />
  <metadata
     id="metadata1549">
    <rdf:RDF>
      <cc:Work
         rdf:about="">
        <dc:format>image/svg+xml</dc:format>
        <dc:type
           rdf:resource="http://purl.org/dc/dcmitype/StillImage" />
      </cc:Work>
    </rdf:RDF>
  </metadata>
  <g
     inkscape:label="Layer 1"
     inkscape:groupmode="layer"
     id="layer1"
     transform="translate(0,109.40002)">
    <circle
       style="fill:#000000;stroke:#000000;stroke-width:0.0615663"
       id="origin"
       cx="858.45844"
       cy="755.39056"
       inkscape:label="origin"
       r="0.9789077" />
    <path
       id="path6515-6"
       d="m 792.45327,260.92978 c 0,-10.1454 -8.2241,-18.3694 -18.36934,-18.3694 -10.14512,0 -18.36935,8.224 -18.36935,18.3694 0,10.1452 8.22423,18.3693 18.36935,18.3693 10.14524,0 18.36934,-8.2241 18.36934,-18.3693 z"
       style="display:inline;fill:#000000;fill-opacity:1;fill-rule:nonzero;stroke:#000000;stroke-width:0.129119;stroke-linecap:butt;stroke-linejoin:miter;stroke-miterlimit:10;stroke-dasharray:none;stroke-opacity:1"
       inkscape:connector-curvature="0" />
  </g>
  <g
     inkscape:groupmode="layer"
     id="layer2"
     inkscape:label="Layer 2"
     transform="translate(0,381.00001)">
    <path
       d="M 780.29792,-0.52215635 C 764.42065,26.392044 746.06859,-2.8143563 761.43821,24.393144 c 15.36931,27.2072 -0.18077,-3.5863 31.07423,-3.293 31.24719,0.2922 15.12977,30.7896 31.00708,3.8756 15.87757,-26.9142003 -3.01924,1.9427 -18.38882,-25.26480035 C 789.76109,-27.496356 824.23053,-28.786556 792.98334,-29.079856 c -31.24685,-0.2922 3.19216,1.6438 -12.68542,28.55769965 z"
       id="path851"
       style="stroke-width:0.291677" />
  </g>
  <g
     inkscape:groupmode="layer"
     id="layer3"
     inkscape:label="Layer 3">
    <g
       id="g114"
       transform="matrix(0.26458334,0,0,0.26458334,240.24168,115.49063)" />
    <path
       d="m 797.61336,464.39658 c 2.76951,-2.77799 4.6743,-12.0474 5.14172,-25.0296 l 0.097,-2.7341 0.2822,-0.26452 c 0.14984,-0.14136 1.173,-1.0231 2.25777,-1.958 1.09362,-0.926 2.25778,-1.9402 2.59293,-2.2489 l 0.59972,-0.55559 0.0794,-0.88201 c 0.0442,-0.48499 0.18519,-1.8962 0.30868,-3.1309 0.12339,-1.2347 0.45861,-4.68309 0.74083,-7.6641 0.34397,-3.53659 0.56444,-5.45919 0.635,-5.54739 0.0615,-0.0713 3.56307,-3.19261 7.78756,-6.9321 4.2157,-3.7394 8.74008,-7.74351 10.05418,-8.8988 1.30531,-1.16418 3.57186,-3.1662 5.02708,-4.4627 1.44638,-1.28761 3.11327,-2.7693 3.70417,-3.28081 0.58207,-0.5115 1.15537,-1.04067 1.27879,-1.17301 l 0.22047,-0.24691 0.0264,-3.272 0.0264,-3.272 -0.51172,-0.52021 c -0.28221,-0.2822 -1.04949,-0.97891 -1.70215,-1.54339 -0.65264,-0.5733 -1.49049,-1.3141 -1.85208,-1.658 -0.67031,-0.64387 -1.6845,-1.35821 -1.92264,-1.35821 -0.14114,0 -16.72166,-5.5298 -16.97742,-5.6621 -0.12339,-0.062 -0.15001,-0.19399 -0.15,-0.7144 v -0.63499 l 1.16414,-1.12893 c 0.64384,-0.62617 1.74627,-1.63158 2.4518,-2.23129 0.70552,-0.59974 1.41993,-1.22591 1.59632,-1.3846 0.17642,-0.14998 0.71439,-0.61738 1.19063,-1.0319 0.47627,-0.41447 1.21706,-1.08483 1.64043,-1.49929 l 0.77612,-0.74968 0.0442,-1.94031 c 0.018,-1.06709 0.0618,-2.71629 0.0882,-3.66 0.0618,-1.9491 0.0264,-2.09909 -0.48508,-2.2225 -0.27341,-0.071 -2.92805,-0.9172 -5.60035,-1.79039 -0.48506,-0.15881 -1.02305,-0.31751 -1.19062,-0.35281 -0.16763,-0.035 -0.43216,-0.1322 -0.57325,-0.2028 -0.15,-0.079 -0.30868,-0.14099 -0.35279,-0.14999 -0.22048,-0.026 -0.65263,-0.15881 -1.03188,-0.32631 l -0.41452,-0.1852 -0.37924,0.2381 c -1.00539,0.6262 -1.51694,1.05831 -4.03047,3.40431 l -2.66347,2.42539 c -9.47124,5.7563 -16.53595,3.9942 -22.09288,-0.84669 -2.18721,-1.91381 -4.36562,-3.81001 -4.83304,-4.22451 -0.47628,-0.41447 -0.92603,-0.7761 -1.00541,-0.8114 -0.097,-0.044 -1.93146,0.5115 -5.00063,1.5081 l -4.85069,1.5787 0.0264,1.35821 c 0.1322,5.6974 0.15881,6.13829 0.35279,6.3059 0.1058,0.088 2.07255,1.88739 4.38325,3.99519 l 4.19806,3.8365 -0.0264,0.7055 -0.0264,0.7056 -3.48368,1.1818 c -1.91382,0.6438 -5.91784,1.9932 -8.89883,2.98091 l -5.40631,1.81689 -2.63702,2.3283 -2.637,2.3371 -10e-6,3.3427 10e-6,3.3425 0.23812,0.2558 c 0.141,0.1412 2.86632,2.5665 6.06778,5.3975 3.20144,2.831 6.87032,6.07659 8.15796,7.22309 1.28764,1.13771 4.8948,4.3304 8.00806,7.09091 3.1309,2.77809 5.68853,5.1064 5.70618,5.2034 0.0264,0.10585 0.24694,2.2931 0.48509,4.8595 0.24693,2.57529 0.56443,5.865 0.70553,7.32019 0.15,1.45521 0.30868,3.08681 0.3616,3.616 0.0618,0.6438 0.15,1.05831 0.25576,1.22591 0.18522,0.29978 1.13774,1.15528 3.57188,3.2191 0.97896,0.8202 1.82562,1.60509 1.88736,1.73739 0.1146,0.26461 0.17641,1.22591 0.3616,5.83851 0.053,1.3317 0.1322,2.7164 0.1764,3.08679 0.044,0.3792 0.1234,1.13771 0.1764,1.6933 0.25576,2.6635 0.48508,4.4009 0.89076,6.79101 0.46744,2.77809 0.70556,3.7747 1.39348,5.9178 0.51153,1.5611 0.97014,2.55769 1.60514,3.4837 0.44978,0.64379 1.2259,1.4464 1.40228,1.4464 0.053,0 0.28223,-0.18521 0.51153,-0.41451 z"
       id="path185"
       style="fill:#000000;stroke:none;stroke-width:0.00881944"
       sodipodi:nodetypes="ccccccccccccccccccccccscsccscscccccccccccccccccccccccccccccccccscccccccccccccccscc" />
  </g>
  <g
     inkscape:groupmode="layer"
     id="layer4"
     inkscape:label="Layer 4">
    <path
       d="m 757.82424,448.37278 c 3.92267,-0.006 11.82403,-5.21357 21.33433,-14.06287 l 2.00189,-1.86471 0.38659,0.0125 c 0.20595,0.006 1.55288,0.106 2.98102,0.21199 1.42808,0.11851 2.96844,0.22458 3.42367,0.24325 l 0.81699,0.0313 0.67953,-0.56782 c 0.37406,-0.31182 1.47177,-1.20986 2.4321,-1.99566 0.96032,-0.78581 3.63579,-2.9871 5.94323,-4.89545 2.74392,-2.25757 4.25932,-3.46114 4.37161,-3.47358 0.0943,-0.007 4.77694,0.2619 10.40833,0.60486 5.6251,0.33679 11.65567,0.70469 13.40179,0.81699 1.74619,0.0998 4.76456,0.28687 6.7103,0.39909 1.93324,0.11228 4.15963,0.24325 4.93915,0.29938 0.77322,0.0498 1.55279,0.0811 1.73362,0.0747 l 0.33051,-0.0187 2.33204,-2.29527 2.33204,-2.29527 0.006,-0.72967 c 0,-0.39909 -0.0499,-1.4343 -0.1123,-2.29497 -0.0561,-0.86685 -0.12466,-1.98309 -0.13718,-2.48195 -0.0187,-0.92926 -0.23072,-2.15152 -0.39915,-2.31995 -0.0998,-0.0998 -7.9138,-15.73412 -8.00113,-16.00855 -0.0434,-0.13109 0.0311,-0.24323 0.39909,-0.61122 l 0.44901,-0.44901 1.62142,0.0249 c 0.89807,0.0125 2.38852,0.0811 3.31144,0.15593 0.92301,0.0748 1.87094,0.13724 2.10789,0.14976 0.23078,0.0187 0.94171,0.0686 1.57154,0.11222 0.62987,0.0437 1.62771,0.0935 2.2201,0.0998 l 1.07889,0.0187 1.40311,-1.34089 c 0.76728,-0.74182 1.96455,-1.87687 2.65024,-2.52579 1.42206,-1.33438 1.50267,-1.46589 1.2286,-1.91449 -0.14312,-0.24353 -1.42192,-2.71904 -2.69408,-5.22608 -0.23066,-0.45524 -0.49886,-0.94788 -0.59241,-1.09135 -0.0938,-0.14326 -0.21213,-0.39909 -0.26198,-0.54879 -0.0502,-0.16193 -0.11852,-0.31791 -0.14334,-0.35545 -0.13753,-0.17431 -0.34924,-0.57383 -0.49893,-0.9604 l -0.16214,-0.42405 -0.43657,-0.0999 c -1.15371,-0.26813 -1.82095,-0.32427 -5.2572,-0.44278 l -3.59832,-0.1683 c -10.76754,-2.6269 -14.51704,-8.86839 -15.02334,-16.22074 -0.19331,-2.89985 -0.39286,-5.78103 -0.43027,-6.40463 -0.0437,-0.62987 -0.10606,-1.20363 -0.13725,-1.28474 -0.0375,-0.0997 -1.72739,-1.00402 -4.60234,-2.46957 l -4.54627,-2.31365 -0.94202,0.97878 c -3.93519,4.12215 -4.22814,4.45272 -4.20948,4.70841 0.0126,0.13704 0.13097,2.80014 0.27444,5.92449 l 0.25562,5.68125 -0.51725,0.48048 -0.51732,0.48055 -3.29901,-1.62769 c -1.80849,-0.89803 -5.59392,-2.77511 -8.40022,-4.18458 l -5.10756,-2.53809 -3.51101,-0.2183 -3.51722,-0.21206 -2.36365,2.36364 -2.3635,2.36351 -0.0125,0.34926 c -1.4e-4,0.19954 0.212,3.84158 0.47396,8.10717 0.26192,4.26556 0.56124,9.15484 0.66101,10.87601 0.10606,1.71503 0.3991,6.5232 0.64856,10.67662 0.24947,4.17828 0.4116,7.63314 0.35553,7.71425 -0.0565,0.0932 -1.44688,1.79605 -3.09317,3.7792 -1.64642,1.99559 -3.74809,4.54627 -4.67729,5.67502 -0.92292,1.13505 -1.96442,2.40099 -2.30121,2.81259 -0.41139,0.49907 -0.64227,0.8544 -0.68597,1.04773 -0.081,0.34293 -0.0124,1.62138 0.2494,4.80189 0.11228,1.27222 0.15599,2.42593 0.10607,2.56311 -0.10607,0.26814 -0.74212,0.99158 -3.87276,4.38414 -0.90418,0.97913 -1.82731,2.01426 -2.05796,2.30742 -0.23702,0.29925 -0.71722,0.89174 -1.07261,1.32208 -1.7025,2.06426 -2.76889,3.45492 -4.17208,5.43186 -1.6339,2.29491 -2.17025,3.16798 -3.19923,5.1698 -0.74211,1.46562 -1.12253,2.4946 -1.3283,3.5984 -0.13717,0.77328 -0.15592,1.8896 -0.0312,2.01433 0.0375,0.0375 0.3305,0.0686 0.65478,0.0686 z"
       id="path185-3"
       style="fill:#000000;stroke:none;stroke-width:0.00881944"
       sodipodi:nodetypes="ccccccccccccccccccccccscsccscscccccccccccccccccccccccccccccccccscccccccccccccccscc" />
  </g>
  <g
     inkscape:groupmode="layer"
     id="layer5"
     inkscape:label="Layer 5">
    <path
       d="m 736.09244,400.89749 c 2.77799,2.7695 12.0474,4.6743 25.0296,5.14169 l 2.7341,0.097 0.26452,0.28219 c 0.14139,0.14988 1.0231,1.17301 1.958,2.2578 0.92601,1.09361 1.9402,2.25781 2.2489,2.59291 l 0.55557,0.59983 0.88201,0.079 c 0.48499,0.044 1.89619,0.1852 3.13089,0.30861 1.23471,0.1234 4.6831,0.45869 7.66411,0.74089 3.53659,0.3439 5.45919,0.5644 5.54739,0.63501 0.0716,0.0617 3.19261,3.56299 6.9321,7.7875 3.7394,4.21569 7.74351,8.74009 8.89879,10.05419 1.16418,1.30531 3.16621,3.5719 4.4627,5.0271 1.28762,1.4464 2.7693,3.11331 3.28082,3.7042 0.51153,0.58196 1.04064,1.15533 1.17303,1.27868 l 0.24693,0.22048 3.272,0.026 3.272,0.026 0.5202,-0.51171 c 0.2822,-0.2822 0.97892,-1.04949 1.54338,-1.7022 0.57329,-0.65262 1.31411,-1.4904 1.658,-1.852 0.64387,-0.67031 1.35821,-1.6845 1.35821,-1.9227 0,-0.14114 5.52981,-16.7216 5.66211,-16.97741 0.062,-0.12338 0.19398,-0.14999 0.71439,-0.14999 h 0.635 l 1.12891,1.16412 c 0.62619,0.64387 1.63159,1.74628 2.23128,2.4518 0.59978,0.70556 1.22591,1.42 1.38461,1.5964 0.14996,0.17641 0.61738,0.7144 1.03189,1.1906 0.41449,0.47628 1.08485,1.21708 1.49928,1.64042 l 0.74967,0.77611 1.9403,0.044 c 1.06709,0.018 2.71629,0.062 3.66001,0.088 1.94909,0.062 2.09908,0.026 2.2225,-0.48499 0.071,-0.27341 0.9172,-2.9281 1.79039,-5.6004 0.1588,-0.48501 0.31751,-1.023 0.3528,-1.1906 0.035,-0.16763 0.13221,-0.4322 0.20281,-0.5733 0.079,-0.15 0.14099,-0.3086 0.14998,-0.3527 0.026,-0.2205 0.15881,-0.65271 0.32631,-1.0319 l 0.1852,-0.4145 -0.23806,-0.37934 c -0.6262,-1.00539 -1.05831,-1.5169 -3.40431,-4.0305 l -2.42539,-2.6634 c -5.7563,-9.4713 -3.9942,-16.53599 0.84669,-22.0929 1.91381,-2.18719 3.81001,-4.3656 4.22451,-4.833 0.41448,-0.47629 0.7761,-0.92609 0.8114,-1.0055 0.044,-0.097 -0.5115,-1.9314 -1.5081,-5.0006 l -1.5787,-4.85069 -1.35821,0.026 c -5.6974,0.1322 -6.13829,0.1588 -6.3059,0.3528 -0.088,0.10581 -1.88739,2.0726 -3.99519,4.3833 l -3.8365,4.198 -0.7055,-0.026 -0.7056,-0.026 -1.1818,-3.4837 c -0.64379,-1.9138 -1.9932,-5.9178 -2.98091,-8.8988 l -1.81689,-5.40629 -2.3283,-2.63702 -2.3371,-2.637 -3.3427,-10e-6 -3.3425,10e-6 -0.2558,0.23813 c -0.1412,0.14099 -2.5665,2.86631 -5.3975,6.06777 -2.831,3.20141 -6.07659,6.87031 -7.22309,8.15791 -1.13771,1.2877 -4.33039,4.8948 -7.09091,8.00811 -2.77809,3.13089 -5.1064,5.68849 -5.2034,5.70619 -0.10586,0.026 -2.2931,0.2469 -4.8595,0.4851 -2.57529,0.2469 -5.865,0.5644 -7.32019,0.7055 -1.4552,0.15 -3.08681,0.3087 -3.616,0.3616 -0.64379,0.062 -1.05831,0.15 -1.22591,0.25581 -0.29977,0.18521 -1.15526,1.13772 -3.2191,3.5718 -0.8202,0.97899 -1.60509,1.82569 -1.73739,1.88739 -0.26461,0.1146 -1.22591,0.1764 -5.83851,0.3616 -1.3317,0.053 -2.7164,0.1322 -3.08679,0.1764 -0.3792,0.044 -1.13771,0.1234 -1.6933,0.1764 -2.6635,0.2558 -4.4009,0.4851 -6.79101,0.8908 -2.77809,0.4674 -3.7747,0.7055 -5.9178,1.3934 -1.5611,0.5116 -2.5577,0.9702 -3.4837,1.6052 -0.64379,0.4498 -1.4464,1.2259 -1.44641,1.40229 0,0.053 0.18519,0.28221 0.41449,0.51151 z"
       id="path185-3-3"
       style="fill:#000000;stroke:none;stroke-width:0.00881944"
       sodipodi:nodetypes="ccccccccccccccccccccccscsccscscccccccccccccccccccccccccccccccccscccccccccccccccscc" />
  </g>
  <g
     inkscape:groupmode="layer"
     id="layer6"
     inkscape:label="Layer 6">
    <path
       d="m 772.08848,354.07008 c 0.006,3.92267 5.21357,11.82403 14.06288,21.33433 l 1.86471,2.00189 -0.0125,0.38658 c -0.006,0.20596 -0.10601,1.55288 -0.21199,2.98102 -0.11851,1.42809 -0.22459,2.96844 -0.24326,3.42368 l -0.0313,0.81699 0.56781,0.67953 c 0.31183,0.37406 1.20985,1.47177 1.99565,2.4321 0.78582,0.96033 2.98711,3.63579 4.89546,5.94323 2.25757,2.74392 3.46114,4.25932 3.47358,4.37162 0.007,0.0943 -0.2619,4.77693 -0.60486,10.40833 -0.33679,5.62509 -0.70469,11.65566 -0.81699,13.40178 -0.0998,1.74619 -0.28687,4.76456 -0.39909,6.7103 -0.11228,1.93324 -0.24326,4.15963 -0.29938,4.93915 -0.0498,0.77322 -0.0811,1.55279 -0.0747,1.73363 l 0.0187,0.3305 2.29527,2.33204 2.29527,2.33204 0.72967,0.006 c 0.39909,0 1.4343,-0.0499 2.29497,-0.1123 0.86685,-0.0561 1.98309,-0.12465 2.48194,-0.13718 0.92927,-0.0187 2.15152,-0.23072 2.31996,-0.39915 0.0998,-0.0998 15.73412,-7.91379 16.00855,-8.00113 0.13109,-0.0434 0.24323,0.0311 0.61121,0.39909 l 0.44902,0.44902 -0.0249,1.62141 c -0.0125,0.89807 -0.0811,2.38852 -0.15593,3.31144 -0.0748,0.92302 -0.13724,1.87094 -0.14976,2.10789 -0.0187,0.23078 -0.0686,0.94171 -0.11222,1.57154 -0.0437,0.62987 -0.0935,1.62771 -0.0998,2.2201 l -0.0187,1.07889 1.34088,1.40312 c 0.74182,0.76727 1.87687,1.96454 2.5258,2.65024 1.33437,1.42205 1.46589,1.50266 1.91448,1.2286 0.24354,-0.14312 2.71904,-1.42192 5.22608,-2.69408 0.45524,-0.23067 0.94788,-0.49886 1.09135,-0.59241 0.14328,-0.0938 0.3991,-0.21213 0.54879,-0.26198 0.16193,-0.0502 0.31791,-0.11852 0.35545,-0.14334 0.1743,-0.13754 0.57383,-0.34924 0.9604,-0.49893 l 0.42405,-0.16214 0.0999,-0.43657 c 0.26813,-1.15371 0.32427,-1.82095 0.44278,-5.2572 l 0.1683,-3.59832 c 2.6269,-10.76754 8.86839,-14.51704 16.22074,-15.02334 2.89985,-0.19331 5.78103,-0.39286 6.40463,-0.43027 0.62987,-0.0437 1.20363,-0.10606 1.28474,-0.13725 0.0997,-0.0375 1.00402,-1.72739 2.46957,-4.60234 l 2.31365,-4.54627 -0.97879,-0.94201 c -4.12215,-3.93519 -4.45271,-4.22814 -4.70841,-4.20948 -0.13704,0.0126 -2.80013,0.13096 -5.92449,0.27443 l -5.68124,0.25562 -0.48048,-0.51725 -0.48055,-0.51732 1.62769,-3.299 c 0.89803,-1.80849 2.77511,-5.59392 4.18458,-8.40023 l 2.53808,-5.10755 0.2183,-3.51102 0.21206,-3.51722 -2.36363,-2.36365 -2.36352,-2.3635 -0.34926,-0.0125 c -0.19954,-1.5e-4 -3.84157,0.212 -8.10717,0.47395 -4.26556,0.26192 -9.15484,0.56125 -10.87601,0.66102 -1.71502,0.10606 -6.52319,0.3991 -10.67662,0.64856 -4.17828,0.24946 -7.63314,0.4116 -7.71424,0.35552 -0.0932,-0.0565 -1.79605,-1.44688 -3.7792,-3.09316 -1.99559,-1.64642 -4.54628,-3.74809 -5.67502,-4.6773 -1.13505,-0.92291 -2.40099,-1.96442 -2.81259,-2.3012 -0.49907,-0.41139 -0.85441,-0.64228 -1.04774,-0.68597 -0.34293,-0.081 -1.62138,-0.0124 -4.80189,0.2494 -1.27222,0.11228 -2.42593,0.15599 -2.5631,0.10606 -0.26815,-0.10607 -0.99159,-0.74211 -4.38414,-3.87276 -0.97914,-0.90417 -2.01427,-1.8273 -2.30743,-2.05795 -0.29925,-0.23703 -0.89174,-0.71723 -1.32208,-1.07261 -2.06425,-1.7025 -3.45492,-2.76889 -5.43186,-4.17208 -2.2949,-1.63391 -3.16798,-2.17025 -5.16979,-3.19924 -1.46562,-0.7421 -2.49461,-1.12253 -3.5984,-1.3283 -0.77329,-0.13717 -1.8896,-0.15591 -2.01434,-0.0312 -0.0375,0.0375 -0.0686,0.3305 -0.0686,0.65478 z"
       id="path185-3-3-6"
       style="fill:#000000;stroke:none;stroke-width:0.00881944"
       sodipodi:nodetypes="ccccccccccccccccccccccscsccscscccccccccccccccccccccccccccccccccscccccccccccccccscc" />
  </g>
  <g
     inkscape:groupmode="layer"
     id="layer7"
     inkscape:label="Layer 7">
    <path
       d="m 796.50911,352.31054 c -2.76951,2.77799 -4.6743,12.04741 -5.14169,25.02961 l -0.097,2.7341 -0.28219,0.26451 c -0.14988,0.1414 -1.17301,1.0231 -2.2578,1.958 -1.09361,0.92602 -2.25781,1.9402 -2.59291,2.2489 l -0.59984,0.55557 -0.079,0.882 c -0.044,0.485 -0.18521,1.89619 -0.30862,3.13089 -0.1234,1.23472 -0.45869,4.6831 -0.74089,7.66411 -0.3439,3.53659 -0.56439,5.45919 -0.63501,5.5474 -0.0617,0.0716 -3.56299,3.19261 -7.7875,6.9321 -4.21568,3.73939 -8.74009,7.7435 -10.05419,8.89879 -1.30531,1.16417 -3.5719,3.1662 -5.02709,4.4627 -1.44641,1.28761 -3.11332,2.76929 -3.7042,3.28081 -0.58197,0.51154 -1.15534,1.04064 -1.27869,1.17304 l -0.22047,0.24692 -0.026,3.272 -0.026,3.27201 0.51171,0.52019 c 0.2822,0.2822 1.04949,0.97892 1.7022,1.54338 0.65262,0.57329 1.49039,1.31412 1.85199,1.658 0.67032,0.64387 1.6845,1.35821 1.9227,1.35822 0.14114,0 16.7216,5.52981 16.97741,5.6621 0.12338,0.062 0.15,0.19398 0.14999,0.71439 v 0.63501 l -1.16411,1.1289 c -0.64387,0.62619 -1.74629,1.63159 -2.4518,2.23128 -0.70557,0.59979 -1.42,1.22592 -1.5964,1.38461 -0.17641,0.14997 -0.7144,0.61738 -1.1906,1.0319 -0.47629,0.41448 -1.21708,1.08485 -1.64042,1.49928 l -0.77611,0.74966 -0.044,1.9403 c -0.018,1.06709 -0.062,2.71629 -0.088,3.66002 -0.062,1.94908 -0.026,2.09908 0.485,2.22249 0.2734,0.071 2.9281,0.9172 5.60039,1.79039 0.48502,0.1588 1.023,0.31751 1.1906,0.35281 0.16764,0.035 0.43221,0.13221 0.5733,0.2028 0.15,0.079 0.30861,0.14099 0.3527,0.14999 0.2205,0.026 0.65271,0.15881 1.0319,0.32631 l 0.4145,0.1852 0.37934,-0.23807 c 1.0054,-0.6262 1.5169,-1.05831 4.0305,-3.40431 l 2.6634,-2.42539 c 9.4713,-5.7563 16.536,-3.99419 22.0929,0.84669 2.1872,1.91382 4.3656,3.81002 4.83301,4.22451 0.47628,0.41449 0.92609,0.7761 1.00549,0.8114 0.097,0.044 1.9314,-0.5115 5.0006,-1.50809 l 4.85071,-1.57869 -0.026,-1.35823 c -0.1322,-5.6974 -0.1588,-6.13828 -0.3528,-6.3059 -0.10581,-0.088 -2.07259,-1.88738 -4.3833,-3.99519 l -4.19799,-3.83649 0.026,-0.70551 0.026,-0.7056 3.4837,-1.18179 c 1.91379,-0.64379 5.91779,-1.9932 8.8988,-2.98092 l 5.40628,-1.81689 2.63702,-2.3283 2.637,-2.3371 2e-5,-3.34269 -2e-5,-3.34251 -0.23812,-0.2558 c -0.14099,-0.14121 -2.86631,-2.5665 -6.06777,-5.39751 -3.20141,-2.831 -6.87031,-6.07658 -8.15791,-7.22308 -1.2877,-1.13771 -4.8948,-4.33039 -8.00811,-7.09091 -3.13089,-2.7781 -5.68849,-5.1064 -5.70619,-5.2034 -0.0259,-0.10586 -0.2469,-2.2931 -0.4851,-4.8595 -0.2469,-2.57529 -0.5644,-5.865 -0.70549,-7.32019 -0.15001,-1.4552 -0.30871,-3.08681 -0.36161,-3.616 -0.062,-0.64379 -0.15,-1.05832 -0.25581,-1.22592 -0.18521,-0.29976 -1.13772,-1.15525 -3.5718,-3.21909 -0.97899,-0.8202 -1.8257,-1.60509 -1.88738,-1.73739 -0.11461,-0.26462 -0.17641,-1.22591 -0.3616,-5.83851 -0.053,-1.3317 -0.13221,-2.7164 -0.17641,-3.08679 -0.044,-0.37921 -0.1234,-1.13772 -0.1764,-1.6933 -0.2558,-2.6635 -0.4851,-4.4009 -0.8908,-6.79101 -0.46739,-2.77809 -0.70551,-3.7747 -1.39339,-5.9178 -0.51161,-1.5611 -0.97021,-2.55771 -1.60521,-3.48371 -0.4498,-0.64379 -1.2259,-1.44639 -1.40229,-1.44641 -0.053,0 -0.2822,0.18519 -0.5115,0.41449 z"
       id="path185-3-3-6-7"
       style="fill:#000000;stroke:none;stroke-width:0.00881944"
       sodipodi:nodetypes="ccccccccccccccccccccccscsccscscccccccccccccccccccccccccccccccccscccccccccccccccscc" />
  </g>
  <g
     inkscape:groupmode="layer"
     id="layer8"
     inkscape:label="Layer 8">
    <path
       d="m 496.12569,64.700606 c -1.05833,0.14111 -2.61055,0.52916 -3.42194,0.81139 -1.37583,0.49389 -12.84111,8.85472 -12.77056,9.34861 0,0.10583 27.37556,17.39194 60.78362,38.417504 l 60.81889,38.20583 12.94694,13.22917 c 7.12611,7.26722 12.91167,13.26444 12.84111,13.335 -0.0705,0.0705 -8.32555,1.65805 -18.30916,3.56305 -9.98361,1.86973 -22.26028,4.19806 -27.26973,5.15056 -5.04472,0.9525 -9.31333,1.72861 -9.56027,1.72861 -0.24695,0 -7.83167,-7.97278 -16.89806,-17.70944 -10.05417,-10.83028 -17.32139,-18.34445 -18.62667,-19.29695 -2.64583,-1.905 -7.62,-4.51555 -9.24278,-4.79777 -1.23472,-0.24695 -11.85333,1.41111 -12.27666,1.86972 -0.10584,0.14111 0.49388,7.9375 1.30527,17.35666 0.84667,9.41917 1.48167,17.35667 1.44639,17.67417 -0.0705,0.635 0.10584,0.70556 -29.35111,-13.26444 -9.31333,-4.40973 -17.88583,-8.32556 -19.05,-8.71361 -4.7625,-1.55223 -11.71222,-0.49389 -14.35806,2.18722 -0.74083,0.74083 -1.34055,1.62277 -1.34055,2.01083 0,0.42333 7.86694,8.04333 22.61305,21.83694 12.41778,11.60639 23.10695,21.55473 23.70667,22.08389 l 1.12889,0.9525 -1.37583,1.12889 c -1.76389,1.48167 -2.68111,3.4925 -2.68111,6.0325 0,1.79917 0.10583,2.08139 1.05833,2.89278 1.79917,1.48167 6.87917,2.71639 12.87639,3.10445 l 1.41111,0.10583 11.00667,14.64028 c 6.0325,8.04333 11.35944,14.9225 11.78278,15.24 1.12888,0.9525 5.67972,0.88194 8.29027,-0.10584 3.81,-1.41111 3.70417,-1.19944 6.52639,-13.37027 1.37584,-5.92667 2.54,-10.795 2.57528,-10.86556 0.0706,-0.0353 3.4925,0.17639 7.65528,0.45861 12.45306,0.84667 26.9875,1.23472 46.53139,1.23472 24.23583,0 34.57222,-0.42333 53.0225,-2.15194 4.23334,-0.38806 8.07861,-0.67028 8.5725,-0.59972 0.635,0.0705 5.46806,4.1275 14.64028,12.27666 l 13.68778,12.17084 0.0353,33.40805 c 0,18.41501 0.0705,33.44334 0.14111,33.44334 0.0706,0 3.66889,-0.3175 7.97278,-0.70556 8.50194,-0.77611 10.51277,-1.27 13.22916,-3.21027 0.88195,-0.635 2.2225,-2.04612 2.92806,-3.13973 1.55222,-2.32833 0.45861,0.0353 25.75278,-55.20972 17.78,-38.80556 20.49639,-44.48528 21.23722,-44.69695 0.49389,-0.14111 2.96333,-0.49389 5.46806,-0.81139 10.58333,-1.34055 30.26833,-4.93888 45.68472,-8.32555 48.5775,-10.75972 78.105,-23.495 84.52556,-36.44195 1.27,-2.61055 1.37583,-3.03388 1.37583,-5.85611 0,-2.68111 -0.10583,-3.24555 -1.16417,-5.36222 -2.18722,-4.445 -5.715,-6.45583 -17.00389,-9.77194 -9.48972,-2.78695 -10.26583,-3.06917 -16.43944,-5.99723 -6.17361,-2.92805 -8.21972,-3.45722 -15.13417,-3.91583 -10.37166,-0.70555 -18.45028,0.74083 -30.51528,5.46806 -2.61055,1.02305 -5.08,1.94027 -5.46805,2.08139 -0.38806,0.14111 -4.02167,0.88194 -8.11389,1.65805 -4.05695,0.77611 -12.80583,2.43417 -19.40278,3.66889 -37.25333,7.02028 -47.80139,8.99583 -48.43639,8.99583 -0.38806,0 -11.14778,-4.05694 -23.91833,-9.03111 C 636.1432,116.70005 566.04625,89.465606 518.03319,70.803656 c -17.81527,-6.91444 -17.35666,-6.80861 -21.9075,-6.10305 z"
       id="path341"
       style="fill:#000000;stroke:none;stroke-width:0.0352778" />
  </g>
  <g
     inkscape:groupmode="layer"
     id="layer9"
     inkscape:label="Layer 9">
    <path
       fill="#000000"
       d="m 201.77819,198.78402 -97.56511,152.13543 24.80469,26.45833 21.31737,-16.32537 18.37013,3.09621 17.99959,-5.60336 15.07333,12.21794 15.95877,-11.55386 17.11414,4.93928 23.01871,-3.98166 16.6688,17.21082 24.80468,-26.45833 z"
       id="path286"
       style="stroke-width:0.413411"
       sodipodi:nodetypes="ccccccccccccc" />
  </g>
</svg>
