<?xml version="1.0" encoding="UTF-8"?>
<svg id="Stealth" xmlns="http://www.w3.org/2000/svg" xmlns:svg="http://www.w3.org/2000/svg" xmlns:sodipodi="http://sodipodi.sourceforge.net/DTD/sodipodi-0.dtd" xmlns:rdf="http://www.w3.org/1999/02/22-rdf-syntax-ns#" xmlns:inkscape="http://www.inkscape.org/namespaces/inkscape" xmlns:dc="http://purl.org/dc/elements/1.1/" xmlns:cc="http://creativecommons.org/ns#" version="1.1" viewBox="0 0 1152 1152">
  <defs>
    <style>
      .cls-1 {
        stroke-miterlimit: 11.3;
        stroke-width: .2px;
      }

      .cls-1, .cls-2, .cls-3, .cls-4 {
        fill: #000;
      }

      .cls-1, .cls-2, .cls-4 {
        stroke: #000;
      }

      .cls-2 {
        stroke-miterlimit: 10;
      }

      .cls-3 {
        stroke-width: 0px;
      }

      .cls-4 {
        stroke-miterlimit: 28.3;
        stroke-width: .4px;
      }
    </style>
  </defs>
  <g id="Layer_1" data-name="Layer 1">
    <g id="layer3" inkscape:groupmode="layer" inkscape:label="Layer 3">
      <path id="path185" class="cls-3" d="M575.1,767.7c-3.8,3.8-6.4,16.6-7.1,34.5v3.8c0,0-.5.4-.5.4-.2.2-1.6,1.4-3.1,2.7s-3.1,2.7-3.6,3.1l-.8.8v1.2c-.2.7-.4,2.6-.5,4.3-.2,1.7-.6,6.4-1,10.6-.5,4.9-.8,7.5-.9,7.6,0,0-4.9,4.4-10.7,9.5s-12,10.7-13.8,12.2c-1.8,1.6-4.9,4.4-6.9,6.1-2,1.8-4.3,3.8-5.1,4.5s-1.6,1.4-1.8,1.6l-.3.3v9l.7.7c.4.4,1.4,1.3,2.3,2.1.9.8,2.1,1.8,2.5,2.3.9.9,2.3,1.9,2.6,1.9s23,7.6,23.4,7.8c.2,0,.2.3.2,1v.9l-1.6,1.6c-.9.9-2.4,2.2-3.4,3.1-1,.8-2,1.7-2.2,1.9s-1,.8-1.6,1.4c-.7.6-1.7,1.5-2.3,2.1l-1.1,1v2.7c0,1.5,0,3.7-.2,5,0,2.7,0,2.9.7,3.1.4,0,4,1.3,7.7,2.5.7.2,1.4.4,1.6.5.2,0,.6.2.8.3s.4.2.5.2c.3,0,.9.2,1.4.4l.6.3.5-.3c1.4-.9,2.1-1.5,5.5-4.7l3.7-3.3c13-7.9,22.8-5.5,30.4,1.2,3,2.6,6,5.2,6.7,5.8s1.3,1.1,1.4,1.1,2.7-.7,6.9-2.1l6.7-2.2v-1.9c-.2-7.8-.3-8.4-.5-8.7,0,0-2.9-2.6-6-5.5l-5.8-5.3v-2l4.8-1.6c2.6-.9,8.1-2.7,12.2-4.1l7.4-2.5,3.6-3.2,3.6-3.2v-9.2l-.3-.4c-.2-.2-3.9-3.5-8.4-7.4-4.4-3.9-9.5-8.4-11.2-9.9-1.8-1.6-6.7-6-11-9.8s-7.8-7-7.9-7.2c0,0-.3-3.2-.7-6.7-.3-3.5-.8-8.1-1-10.1s-.4-4.2-.5-5c0-.9-.2-1.5-.4-1.7-.3-.4-1.6-1.6-4.9-4.4-1.3-1.1-2.5-2.2-2.6-2.4-.2-.4-.2-1.7-.5-8,0-1.8-.2-3.7-.2-4.2s-.2-1.6-.2-2.3c-.4-3.7-.7-6.1-1.2-9.3-.6-3.8-1-5.2-1.9-8.1-.7-2.1-1.3-3.5-2.2-4.8-.6-.9-1.7-2-1.9-2s-.4.3-.7.6h0v-.2Z" sodipodi:nodetypes="ccccccccccccccccccccccscsccscscccccccccccccccccccccccccccccccccscccccccccccccccscc"/>
    </g>
  </g>
  <g id="Layer_3" data-name="Layer 3">
    <g id="layer1" inkscape:groupmode="layer" inkscape:label="Layer 1">
      <circle id="origin" class="cls-1" cx="-476.6" cy="1078.1" r="2.8" inkscape:label="origin"/>
      <path id="path6515-6" class="cls-4" d="M462.3,816.6c0-28.8-23.3-52.1-52.1-52.1s-52.1,23.3-52.1,52.1,23.3,52.1,52.1,52.1,52.1-23.3,52.1-52.1Z" inkscape:connector-curvature="0"/>
    </g>
  </g>
  <g id="Origin">
    <circle class="cls-2" cx="577.2" cy="576" r="29.2"/>
  </g>
  <g id="Layer_2" data-name="Layer 2">
    <g id="layer2" inkscape:groupmode="layer" inkscape:label="Layer 2">
      <path id="path851" class="cls-3" d="M546.3,853.2c-30.2,51.1-65-4.4-35.8,47.3s-.3-6.8,59-6.3c59.4.6,28.7,58.5,58.9,7.4s-5.7,3.7-34.9-48,36.3-54.1-23.1-54.7c-59.4-.6,6.1,3.1-24.1,54.3h0Z"/>
    </g>
  </g>
</svg>