<?xml version="1.0" encoding="UTF-8" standalone="no"?>
<svg
   width="16in"
   height="16in"
   viewBox="0 0 406.4 406.40002"
   version="1.1"
   id="svg1552"
   inkscape:version="1.1.2 (0a00cf5339, 2022-02-04)"
   sodipodi:docname="stealth.svg"
   xmlns:inkscape="http://www.inkscape.org/namespaces/inkscape"
   xmlns:sodipodi="http://sodipodi.sourceforge.net/DTD/sodipodi-0.dtd"
   xmlns="http://www.w3.org/2000/svg"
   xmlns:svg="http://www.w3.org/2000/svg"
   xmlns:rdf="http://www.w3.org/1999/02/22-rdf-syntax-ns#"
   xmlns:cc="http://creativecommons.org/ns#"
   xmlns:dc="http://purl.org/dc/elements/1.1/">
  <defs
     id="defs1546" />
  <sodipodi:namedview
     id="base"
     pagecolor="#ffffff"
     bordercolor="#666666"
     borderopacity="1.0"
     inkscape:pageopacity="0.0"
     inkscape:pageshadow="2"
     inkscape:zoom="0.25"
     inkscape:cx="318"
     inkscape:cy="354"
     inkscape:document-units="in"
     inkscape:current-layer="layer1"
     showgrid="false"
     inkscape:window-width="1874"
     inkscape:window-height="1136"
     inkscape:window-x="0"
     inkscape:window-y="0"
     inkscape:window-maximized="1"
     units="in"
     inkscape:document-rotation="0"
     inkscape:pagecheckerboard="0"
     width="16in" />
  <metadata
     id="metadata1549">
    <rdf:RDF>
      <cc:Work
         rdf:about="">
        <dc:format>image/svg+xml</dc:format>
        <dc:type
           rdf:resource="http://purl.org/dc/dcmitype/StillImage" />
      </cc:Work>
    </rdf:RDF>
  </metadata>
  <g
     inkscape:label="Layer 1"
     inkscape:groupmode="layer"
     id="layer1"
     transform="translate(0,109.40002)">
    <circle
       style="fill:#000000;stroke:#000000;stroke-width:0.0615663"
       id="origin"
       cx="1.0096909"
       cy="295.9903"
       r="0.9789077"
       inkscape:label="origin" />
    <path
       id="path6515-6"
       d="m 329.05219,144.99518 c 0,-10.14547 -8.2241,-18.36946 -18.36934,-18.36946 -10.14512,0 -18.36935,8.22398 -18.36935,18.36946 0,10.14515 8.22423,18.36929 18.36935,18.36929 10.14524,0 18.36934,-8.22414 18.36934,-18.36929 z"
       style="display:inline;fill:#000000;fill-opacity:1;fill-rule:nonzero;stroke:#000000;stroke-width:0.129119;stroke-linecap:butt;stroke-linejoin:miter;stroke-miterlimit:10;stroke-dasharray:none;stroke-opacity:1"
       inkscape:connector-curvature="0" />
  </g>
  <g
     inkscape:groupmode="layer"
     id="layer2"
     inkscape:label="Layer 2"
     transform="translate(0,381.00001)">
    <path
       d="m 110.99549,-141.74485 c -15.877269,26.91416 -34.229329,-2.29224 -18.859709,24.91528 15.369309,27.20719 -0.18077,-3.58632 31.074229,-3.29304 31.24719,0.29218 15.12977,30.789607 31.00708,3.87558 15.87757,-26.91416 -3.01924,1.94272 -18.38882,-25.26476 -15.36961,-27.20733 19.09983,-28.49751 -12.14736,-28.79079 -31.246849,-0.29218 3.19216,1.64383 -12.68542,28.55773 z"
       id="path851"
       style="stroke-width:0.291677" />
  </g>
</svg>
